Coordinates
version=1
nRows=7
nColumns=40
inDegrees=yes

Units are S.I. units (second, meters, Newtons, ...)
Angles are in degrees.

endheader
time	pelvis_tilt	pelvis_list	pelvis_rotation	pelvis_tx	pelvis_ty	pelvis_tz	hip_flexion_r	hip_adduction_r	hip_rotation_r	knee_angle_r	knee_angle_r_beta	ankle_angle_r	subtalar_angle_r	mtp_angle_r	hip_flexion_l	hip_adduction_l	hip_rotation_l	knee_angle_l	knee_angle_l_beta	ankle_angle_l	subtalar_angle_l	mtp_angle_l	lumbar_extension	lumbar_bending	lumbar_rotation	arm_flex_r	arm_add_r	arm_rot_r	elbow_flex_r	pro_sup_r	wrist_flex_r	wrist_dev_r	arm_flex_l	arm_add_l	arm_rot_l	elbow_flex_l	pro_sup_l	wrist_flex_l	wrist_dev_l
     45.26000000	     -3.96121191	     -4.45084652	     -0.12971434	      1.15816320	      0.92462830	      0.54309849	     14.82609583	      3.84548713	     -7.84052251	     22.65775142	     22.65775142	     13.67049455	     -2.93145511	     -3.82687358	     19.01918483	    -15.72698577	     -0.30771455	     52.22743260	     52.22743260	      6.09132471	    -17.11333203	     -1.06956000	     -9.96630786	      4.66291816	      0.74050630	     12.02098080	    -14.54109776	     -4.25238877	     37.73104657	     45.32329462	      0.00000000	      0.00000000	     14.02991544	    -10.07522611	     -0.13958378	     34.73522433	     44.77735636	      0.00000000	      0.00000000
     45.28257143	     -3.74344121	     -4.48027811	      0.67837156	      1.15564278	      0.92183336	      0.54616966	     15.50289047	      4.05793887	     -7.70311001	     24.60181862	     24.60181862	     14.38368362	     -4.98578225	     -4.02136643	     22.28104250	    -15.52059741	      1.49410724	     56.67751526	     56.67751526	      5.23343019	    -18.26575454	      0.24627700	    -10.24349992	      4.57773585	      0.61742264	     15.10346961	    -14.52000392	     -4.47366302	     39.84191460	     45.28107879	      0.00000000	      0.00000000	     11.12575766	     -9.45893113	      0.34072510	     32.85829661	     44.69758568	      0.00000000	      0.00000000
     45.30514286	     -3.06801675	     -4.69222002	      1.47139679	      1.15340428	      0.91956007	      0.54934515	     15.49332730	      4.46838772	     -7.79461755	     26.24082681	     26.24082681	     15.12043726	     -6.41489031	     -4.24615277	     24.83379264	    -15.48020441	      3.13139491	     60.49247520	     60.49247520	      4.51639907	    -18.88111405	      1.32510057	    -11.10332994	      4.72627823	      1.27405693	     18.35451946	    -15.16118567	     -4.72800447	     41.58898383	     45.25184428	      0.00000000	      0.00000000	      8.45262340	     -8.54257922	      0.73760617	     31.36141205	     44.61509633	      0.00000000	      0.00000000
     45.32771429	     -3.00886050	     -4.53623229	      2.33811096	      1.15076788	      0.91642822	      0.55202307	     16.35043767	      4.61395511	     -7.20023294	     28.21401552	     28.21401552	     16.14726393	     -9.03294109	     -2.90534114	     28.31748359	    -14.37619533	      5.16706778	     64.49416630	     64.49416630	      7.76154528	    -18.90800907	     13.30434671	    -11.22599749	      4.48488773	      1.04087058	     20.94752034	    -15.31905468	     -4.27847383	     45.74164928	     45.11939698	      0.00000000	      0.00000000	      5.93729320	     -8.22157485	      2.77237502	     27.88669268	     44.39704993	      0.00000000	      0.00000000
     45.35028571	     -2.64934978	     -4.53624115	      3.16603851	      1.14863972	      0.91390115	      0.55469819	     16.60003312	      4.82483963	     -7.22509397	     29.71399670	     29.71399670	     16.84202584	    -10.56427136	     -2.80291839	     30.69178986	    -13.94249937	      6.23919371	     66.69414058	     66.69414058	      7.71477319	    -19.20800264	     14.49872241	    -11.66462141	      4.43131754	      0.93109198	     24.36342379	    -15.44830517	     -4.57047377	     48.11629482	     45.07374270	      0.00000000	      0.00000000	      3.02336317	     -7.77156228	      3.41322071	     26.06710068	     44.27889613	      0.00000000	      0.00000000
     45.37285714	     -2.22269301	     -4.53761018	      3.98587237	      1.14667776	      0.91201799	      0.55694959	     16.56246209	      5.07896228	     -7.17903001	     30.82414054	     30.82414054	     17.53349774	    -12.04906571	     -2.07292014	     32.68741906	    -13.43270461	      7.10093471	     68.00603001	     68.00603001	      8.78651245	    -19.34816270	     17.75136392	    -12.20069609	      4.42634170	      1.03891991	     27.54244546	    -15.75423895	     -4.78671807	     50.86895220	     45.01850594	      0.00000000	      0.00000000	      0.44691936	     -7.40862606	      4.50097809	     24.33128320	     44.10238387	      0.00000000	      0.00000000
     45.39542857	     -2.06673558	     -4.50326680	      4.82813455	      1.14474694	      0.91035163	      0.55879637	     16.66843241	      5.17487930	     -7.43794816	     31.66859849	     31.66859849	     18.06568110	    -13.02073527	     -1.79082968	     34.55223703	    -12.92826514	      7.61092355	     68.15057783	     68.15057783	      9.46885668	    -19.45783553	     18.97635409	    -12.37385353	      4.37972560	      1.26107508	     30.61241872	    -16.20977834	     -5.13909876	     53.04723951	     44.98153380	      0.00000000	      0.00000000	     -2.01256262	     -7.06109391	      5.10498919	     23.16990719	     43.97419273	      0.00000000	      0.00000000
